<svg width="7" height="14" viewBox="0 0 7 14" fill="none" xmlns="http://www.w3.org/2000/svg">
<path d="M6.77274 6.60224L1.14774 0.977235C1.06907 0.898572 0.96884 0.845004 0.859725 0.823304C0.750611 0.801605 0.637513 0.812748 0.534731 0.855324C0.43195 0.897901 0.344102 0.969999 0.282295 1.0625C0.220489 1.155 0.1875 1.26376 0.1875 1.37501V12.625C0.187502 12.7363 0.220493 12.845 0.282299 12.9375C0.344106 13.03 0.431954 13.1021 0.534734 13.1447C0.637515 13.1873 0.750612 13.1984 0.859725 13.1767C0.968839 13.155 1.06907 13.1014 1.14774 13.0228L6.77274 7.39778C6.82498 7.34555 6.86642 7.28353 6.89469 7.21528C6.92296 7.14703 6.93751 7.07388 6.93751 7.00001C6.93751 6.92614 6.92296 6.85298 6.89469 6.78473C6.86642 6.71648 6.82498 6.65447 6.77274 6.60224Z" fill="#D2307A"/>
</svg>
