<svg width="18" height="24" viewBox="0 0 18 24" fill="none" xmlns="http://www.w3.org/2000/svg">
<rect x="8.34131" y="19.1111" width="19.1111" height="1.31706" transform="rotate(-90 8.34131 19.1111)" fill="#B8B8B8"/>
<path d="M4.82924 14.2222C5.46342 14.2222 6.0914 14.3487 6.67731 14.5944C7.26322 14.8401 7.79559 15.2002 8.24402 15.6541C8.69246 16.1081 9.04818 16.6471 9.29087 17.2402C9.53356 17.8334 9.65847 18.4691 9.65847 19.1111H8.34382C8.34382 18.6439 8.25291 18.1812 8.07629 17.7495C7.89966 17.3178 7.64078 16.9256 7.31442 16.5952C6.98806 16.2648 6.60062 16.0028 6.17421 15.824C5.7478 15.6451 5.29078 15.5531 4.82924 15.5531V14.2222Z" fill="#B8B8B8"/>
<path d="M13.1708 14.2222C12.5366 14.2222 11.9086 14.3487 11.3227 14.5944C10.7368 14.8401 10.2044 15.2002 9.75598 15.6541C9.30754 16.1081 8.95182 16.6471 8.70913 17.2402C8.46644 17.8334 8.34153 18.4691 8.34153 19.1111H9.65618C9.65618 18.6439 9.74709 18.1812 9.92371 17.7495C10.1003 17.3178 10.3592 16.9256 10.6856 16.5952C11.0119 16.2648 11.3994 16.0028 11.8258 15.824C12.2522 15.6451 12.7092 15.5531 13.1708 15.5531V14.2222Z" fill="#B8B8B8"/>
</svg>
