<svg width="40" height="30" viewBox="0 0 40 30" fill="none" xmlns="http://www.w3.org/2000/svg">
<rect x="8.14795" y="13.9025" width="31.8519" height="2.19512" fill="#B8B8B8"/>
<path d="M16.2963 8.04878C16.2963 9.10576 16.0855 10.1524 15.6761 11.1289C15.2666 12.1054 14.6664 12.9927 13.9098 13.7401C13.1531 14.4875 12.2549 15.0804 11.2663 15.4849C10.2777 15.8894 9.21818 16.0976 8.14815 16.0976V13.9065C8.92689 13.9065 9.698 13.7549 10.4175 13.4606C11.1369 13.1662 11.7906 12.7347 12.3413 12.1908C12.8919 11.6468 13.3287 11.0011 13.6267 10.2904C13.9248 9.57973 14.0781 8.81802 14.0781 8.04878H16.2963Z" fill="#B8B8B8"/>
<path d="M16.2963 21.9512C16.2963 20.8942 16.0855 19.8476 15.6761 18.8711C15.2666 17.8946 14.6664 17.0073 13.9098 16.2599C13.1531 15.5125 12.2549 14.9196 11.2663 14.5151C10.2777 14.1106 9.21818 13.9024 8.14815 13.9024V16.0935C8.92689 16.0935 9.698 16.2451 10.4175 16.5394C11.1369 16.8338 11.7906 17.2653 12.3413 17.8092C12.8919 18.3532 13.3287 18.9989 13.6267 19.7096C13.9248 20.4203 14.0781 21.182 14.0781 21.9512H16.2963Z" fill="#B8B8B8"/>
</svg>
