<?xml version="1.0" encoding="UTF-8"?>
<svg xmlns="http://www.w3.org/2000/svg" xmlns:xlink="http://www.w3.org/1999/xlink" width="100pt" height="73pt" viewBox="0 0 100 73" version="1.1">
<defs>
<filter id="alpha" filterUnits="objectBoundingBox" x="0%" y="0%" width="100%" height="100%">
  <feColorMatrix type="matrix" in="SourceGraphic" values="0 0 0 0 1 0 0 0 0 1 0 0 0 0 1 0 0 0 1 0"/>
</filter>
<mask id="mask0">
  <g filter="url(#alpha)">
<rect x="0" y="0" width="100" height="73" style="fill:rgb(0%,0%,0%);fill-opacity:0.501961;stroke:none;"/>
  </g>
</mask>
<clipPath id="clip1">
  <rect x="0" y="0" width="100" height="73"/>
</clipPath>
<g id="surface5" clip-path="url(#clip1)">
<path style=" stroke:none;fill-rule:nonzero;fill:rgb(83.529412%,5.882353%,51.372549%);fill-opacity:1;" d="M 33.078125 43.921875 C 33.121094 44.0625 33.160156 44.242188 33.199219 44.382812 L 67.078125 44.382812 C 67.121094 44.242188 67.179688 44.0625 67.199219 43.921875 Z M 33.078125 43.921875 "/>
<path style=" stroke:none;fill-rule:nonzero;fill:rgb(83.529412%,5.882353%,51.372549%);fill-opacity:1;" d="M 33.359375 44.882812 C 33.398438 45.023438 33.460938 45.203125 33.539062 45.34375 L 66.78125 45.34375 C 66.820312 45.203125 66.878906 45.023438 66.960938 44.882812 Z M 33.359375 44.882812 "/>
<path style=" stroke:none;fill-rule:nonzero;fill:rgb(83.529412%,5.882353%,51.372549%);fill-opacity:1;" d="M 33.738281 45.824219 C 33.820312 45.964844 33.859375 46.144531 33.941406 46.285156 L 66.398438 46.285156 C 66.480469 46.144531 66.519531 45.964844 66.601562 45.824219 Z M 33.738281 45.824219 "/>
<path style=" stroke:none;fill-rule:nonzero;fill:rgb(83.529412%,5.882353%,51.372549%);fill-opacity:1;" d="M 34.640625 47.730469 C 34.738281 47.871094 34.820312 48.050781 34.898438 48.191406 L 65.421875 48.191406 C 65.519531 48.050781 65.601562 47.871094 65.679688 47.730469 Z M 34.640625 47.730469 "/>
<path style=" stroke:none;fill-rule:nonzero;fill:rgb(83.529412%,5.882353%,51.372549%);fill-opacity:1;" d="M 34.140625 46.789062 C 34.21875 46.929688 34.28125 47.109375 34.378906 47.25 L 65.941406 47.25 C 66.019531 47.109375 66.078125 46.929688 66.179688 46.789062 Z M 34.140625 46.789062 "/>
<path style=" stroke:none;fill-rule:nonzero;fill:rgb(83.529412%,5.882353%,51.372549%);fill-opacity:1;" d="M 32.460938 40.128906 C 32.460938 40.269531 32.480469 40.449219 32.480469 40.589844 L 67.800781 40.589844 C 67.820312 40.449219 67.820312 40.269531 67.820312 40.128906 Z M 32.460938 40.128906 "/>
<path style=" stroke:none;fill-rule:nonzero;fill:rgb(83.529412%,5.882353%,51.372549%);fill-opacity:1;" d="M 32.820312 42.976562 C 32.839844 43.117188 32.898438 43.296875 32.921875 43.4375 L 67.339844 43.4375 C 67.378906 43.296875 67.421875 43.117188 67.441406 42.976562 Z M 32.820312 42.976562 "/>
<path style=" stroke:none;fill-rule:nonzero;fill:rgb(83.529412%,5.882353%,51.372549%);fill-opacity:1;" d="M 32.539062 41.074219 C 32.558594 41.214844 32.578125 41.394531 32.578125 41.535156 L 67.699219 41.535156 C 67.71875 41.394531 67.738281 41.214844 67.738281 41.074219 Z M 32.539062 41.074219 "/>
<path style=" stroke:none;fill-rule:nonzero;fill:rgb(83.529412%,5.882353%,51.372549%);fill-opacity:1;" d="M 32.660156 42.015625 C 32.679688 42.15625 32.699219 42.335938 32.738281 42.476562 L 67.539062 42.476562 C 67.558594 42.335938 67.578125 42.15625 67.621094 42.015625 Z M 32.660156 42.015625 "/>
<path style=" stroke:none;fill-rule:nonzero;fill:rgb(83.529412%,5.882353%,51.372549%);fill-opacity:1;" d="M 35.820312 49.636719 C 35.941406 49.777344 36.058594 49.957031 36.160156 50.097656 L 64.101562 50.097656 C 64.21875 49.957031 64.339844 49.777344 64.441406 49.636719 Z M 35.820312 49.636719 "/>
<path style=" stroke:none;fill-rule:nonzero;fill:rgb(83.529412%,5.882353%,51.372549%);fill-opacity:1;" d="M 41.019531 54.410156 C 41.28125 54.589844 41.558594 54.730469 41.839844 54.871094 L 58.480469 54.871094 C 58.738281 54.730469 59.039062 54.570312 59.300781 54.410156 Z M 41.019531 54.410156 "/>
<path style=" stroke:none;fill-rule:nonzero;fill:rgb(83.529412%,5.882353%,51.372549%);fill-opacity:1;" d="M 42.820312 55.351562 C 43.179688 55.53125 43.558594 55.671875 43.941406 55.8125 L 56.378906 55.8125 C 56.738281 55.671875 57.140625 55.511719 57.5 55.351562 Z M 42.820312 55.351562 "/>
<path style=" stroke:none;fill-rule:nonzero;fill:rgb(83.529412%,5.882353%,51.372549%);fill-opacity:1;" d="M 45.421875 56.273438 C 46.160156 56.476562 46.898438 56.636719 47.660156 56.734375 L 52.621094 56.734375 C 53.378906 56.636719 54.140625 56.476562 54.859375 56.273438 Z M 45.421875 56.273438 "/>
<path style=" stroke:none;fill-rule:nonzero;fill:rgb(83.529412%,5.882353%,51.372549%);fill-opacity:1;" d="M 37.441406 51.542969 C 37.578125 51.679688 37.761719 51.863281 37.898438 52.003906 L 62.398438 52.003906 C 62.578125 51.863281 62.71875 51.679688 62.859375 51.542969 Z M 37.441406 51.542969 "/>
<path style=" stroke:none;fill-rule:nonzero;fill:rgb(83.529412%,5.882353%,51.372549%);fill-opacity:1;" d="M 35.199219 48.695312 C 35.300781 48.832031 35.398438 49.015625 35.5 49.15625 L 64.800781 49.15625 C 64.898438 49.015625 65 48.832031 65.101562 48.695312 Z M 35.199219 48.695312 "/>
<path style=" stroke:none;fill-rule:nonzero;fill:rgb(83.529412%,5.882353%,51.372549%);fill-opacity:1;" d="M 36.578125 50.597656 C 36.699219 50.738281 36.839844 50.917969 36.960938 51.058594 L 63.320312 51.058594 C 63.460938 50.917969 63.578125 50.738281 63.699219 50.597656 Z M 36.578125 50.597656 "/>
<path style=" stroke:none;fill-rule:nonzero;fill:rgb(83.529412%,5.882353%,51.372549%);fill-opacity:1;" d="M 32.421875 39.1875 C 32.421875 39.328125 32.421875 39.507812 32.421875 39.648438 L 67.839844 39.648438 C 67.839844 39.507812 67.839844 39.328125 67.839844 39.1875 Z M 32.421875 39.1875 "/>
<path style=" stroke:none;fill-rule:nonzero;fill:rgb(83.529412%,5.882353%,51.372549%);fill-opacity:1;" d="M 39.601562 53.445312 C 39.820312 53.625 40.039062 53.765625 40.261719 53.90625 L 60.058594 53.90625 C 60.28125 53.765625 60.5 53.585938 60.71875 53.445312 Z M 39.601562 53.445312 "/>
<path style=" stroke:none;fill-rule:nonzero;fill:rgb(83.529412%,5.882353%,51.372549%);fill-opacity:1;" d="M 38.441406 52.503906 C 38.621094 52.644531 38.800781 52.824219 38.980469 52.964844 L 61.339844 52.964844 C 61.539062 52.824219 61.699219 52.644531 61.878906 52.503906 Z M 38.441406 52.503906 "/>
<path style=" stroke:none;fill-rule:nonzero;fill:rgb(83.529412%,5.882353%,51.372549%);fill-opacity:1;" d="M 45.339844 22.058594 C 44.859375 22.199219 44.398438 22.359375 43.921875 22.523438 L 56.398438 22.523438 C 55.941406 22.339844 55.460938 22.199219 54.980469 22.058594 Z M 45.339844 22.058594 "/>
<path style=" stroke:none;fill-rule:nonzero;fill:rgb(83.529412%,5.882353%,51.372549%);fill-opacity:1;" d="M 37.398438 26.792969 C 37.261719 26.933594 37.101562 27.113281 36.960938 27.253906 L 63.320312 27.253906 C 63.179688 27.113281 63.019531 26.933594 62.878906 26.792969 Z M 37.398438 26.792969 "/>
<path style=" stroke:none;fill-rule:nonzero;fill:rgb(83.529412%,5.882353%,51.372549%);fill-opacity:1;" d="M 36.558594 27.757812 C 36.441406 27.894531 36.320312 28.078125 36.199219 28.21875 L 64.140625 28.21875 C 64.019531 28.078125 63.898438 27.894531 63.78125 27.757812 Z M 36.558594 27.757812 "/>
<path style=" stroke:none;fill-rule:nonzero;fill:rgb(83.529412%,5.882353%,51.372549%);fill-opacity:1;" d="M 35.820312 28.699219 C 35.699219 28.839844 35.601562 29.019531 35.480469 29.160156 L 64.800781 29.160156 C 64.699219 29.019531 64.578125 28.839844 64.460938 28.699219 Z M 35.820312 28.699219 "/>
<path style=" stroke:none;fill-rule:nonzero;fill:rgb(83.529412%,5.882353%,51.372549%);fill-opacity:1;" d="M 38.398438 25.851562 C 38.21875 25.992188 38.058594 26.171875 37.878906 26.3125 L 62.398438 26.3125 C 62.21875 26.171875 62.058594 25.992188 61.878906 25.851562 Z M 38.398438 25.851562 "/>
<path style=" stroke:none;fill-rule:nonzero;fill:rgb(83.529412%,5.882353%,51.372549%);fill-opacity:1;" d="M 40.960938 23.964844 C 40.71875 24.105469 40.480469 24.265625 40.21875 24.425781 L 60.039062 24.425781 C 59.800781 24.246094 59.558594 24.105469 59.300781 23.964844 Z M 40.960938 23.964844 "/>
<path style=" stroke:none;fill-rule:nonzero;fill:rgb(83.529412%,5.882353%,51.372549%);fill-opacity:1;" d="M 47.640625 21.578125 L 52.679688 21.578125 C 51.859375 21.457031 51.019531 21.398438 50.179688 21.398438 C 49.300781 21.378906 48.460938 21.457031 47.640625 21.578125 Z M 47.640625 21.578125 "/>
<path style=" stroke:none;fill-rule:nonzero;fill:rgb(83.529412%,5.882353%,51.372549%);fill-opacity:1;" d="M 32.441406 38.226562 C 32.441406 38.363281 32.441406 38.546875 32.421875 38.6875 L 67.839844 38.6875 C 67.839844 38.546875 67.839844 38.363281 67.820312 38.226562 Z M 32.441406 38.226562 "/>
<path style=" stroke:none;fill-rule:nonzero;fill:rgb(83.529412%,5.882353%,51.372549%);fill-opacity:1;" d="M 42.761719 23.023438 C 42.441406 23.164062 42.121094 23.324219 41.820312 23.484375 L 58.480469 23.484375 C 58.160156 23.304688 57.839844 23.164062 57.539062 23.023438 C 57.519531 23.023438 42.761719 23.023438 42.761719 23.023438 Z M 42.761719 23.023438 "/>
<path style=" stroke:none;fill-rule:nonzero;fill:rgb(83.529412%,5.882353%,51.372549%);fill-opacity:1;" d="M 35.160156 29.660156 C 35.058594 29.800781 34.960938 29.980469 34.859375 30.121094 L 65.398438 30.121094 C 65.300781 29.980469 65.199219 29.800781 65.101562 29.660156 Z M 35.160156 29.660156 "/>
<path style=" stroke:none;fill-rule:nonzero;fill:rgb(83.529412%,5.882353%,51.372549%);fill-opacity:1;" d="M 39.558594 24.929688 C 39.359375 25.070312 39.179688 25.25 38.980469 25.390625 L 61.339844 25.390625 C 61.140625 25.25 60.960938 25.070312 60.761719 24.929688 Z M 39.558594 24.929688 "/>
<path style=" stroke:none;fill-rule:nonzero;fill:rgb(83.529412%,5.882353%,51.372549%);fill-opacity:1;" d="M 33.078125 34.414062 C 33.039062 34.554688 33 34.734375 32.960938 34.875 L 67.378906 34.875 C 67.339844 34.734375 67.300781 34.554688 67.261719 34.414062 Z M 33.078125 34.414062 "/>
<path style=" stroke:none;fill-rule:nonzero;fill:rgb(83.529412%,5.882353%,51.372549%);fill-opacity:1;" d="M 32.660156 36.320312 C 32.640625 36.460938 32.621094 36.640625 32.578125 36.78125 L 67.699219 36.78125 C 67.679688 36.640625 67.660156 36.460938 67.621094 36.320312 Z M 32.660156 36.320312 "/>
<path style=" stroke:none;fill-rule:nonzero;fill:rgb(83.529412%,5.882353%,51.372549%);fill-opacity:1;" d="M 32.820312 35.375 C 32.800781 35.515625 32.738281 35.699219 32.71875 35.839844 L 67.539062 35.839844 C 67.519531 35.699219 67.5 35.515625 67.441406 35.375 Z M 32.820312 35.375 "/>
<path style=" stroke:none;fill-rule:nonzero;fill:rgb(83.529412%,5.882353%,51.372549%);fill-opacity:1;" d="M 32.539062 37.28125 C 32.519531 37.421875 32.519531 37.601562 32.5 37.742188 L 67.800781 37.742188 C 67.78125 37.601562 67.78125 37.421875 67.761719 37.28125 Z M 32.539062 37.28125 "/>
<path style=" stroke:none;fill-rule:nonzero;fill:rgb(83.529412%,5.882353%,51.372549%);fill-opacity:1;" d="M 33.359375 33.472656 C 33.320312 33.613281 33.261719 33.792969 33.21875 33.933594 L 67.101562 33.933594 C 67.058594 33.792969 67 33.613281 66.960938 33.472656 Z M 33.359375 33.472656 "/>
<path style=" stroke:none;fill-rule:nonzero;fill:rgb(83.529412%,5.882353%,51.372549%);fill-opacity:1;" d="M 34.601562 30.605469 C 34.519531 30.746094 34.421875 30.925781 34.359375 31.066406 L 65.921875 31.066406 C 65.839844 30.925781 65.78125 30.746094 65.679688 30.605469 Z M 34.601562 30.605469 "/>
<path style=" stroke:none;fill-rule:nonzero;fill:rgb(83.529412%,5.882353%,51.372549%);fill-opacity:1;" d="M 34.121094 31.566406 C 34.039062 31.707031 33.980469 31.886719 33.898438 32.027344 L 66.359375 32.027344 C 66.28125 31.886719 66.21875 31.707031 66.140625 31.566406 Z M 34.121094 31.566406 "/>
<path style=" stroke:none;fill-rule:nonzero;fill:rgb(83.529412%,5.882353%,51.372549%);fill-opacity:1;" d="M 33.699219 32.507812 C 33.621094 32.648438 33.578125 32.828125 33.5 32.96875 L 66.738281 32.96875 C 66.699219 32.828125 66.621094 32.648438 66.539062 32.507812 Z M 33.699219 32.507812 "/>
<path style=" stroke:none;fill-rule:nonzero;fill:rgb(83.529412%,5.882353%,51.372549%);fill-opacity:1;" d="M 21.140625 24.425781 C 21.320312 24.246094 21.5 24.105469 21.679688 23.964844 L 20.78125 23.964844 C 20.660156 24.105469 20.558594 24.285156 20.441406 24.425781 Z M 21.140625 24.425781 "/>
<path style=" stroke:none;fill-rule:nonzero;fill:rgb(83.529412%,5.882353%,51.372549%);fill-opacity:1;" d="M 27.160156 28.21875 C 27.238281 28.078125 27.300781 27.894531 27.398438 27.757812 L 20.699219 27.757812 C 20.660156 27.894531 20.578125 28.078125 20.519531 28.21875 Z M 27.160156 28.21875 "/>
<path style=" stroke:none;fill-rule:nonzero;fill:rgb(83.529412%,5.882353%,51.372549%);fill-opacity:1;" d="M 19.179688 26.332031 C 19.320312 26.152344 19.480469 26.011719 19.621094 25.871094 L 19.441406 25.871094 C 19.378906 26.011719 19.28125 26.171875 19.179688 26.332031 Z M 19.179688 26.332031 "/>
<path style=" stroke:none;fill-rule:nonzero;fill:rgb(83.529412%,5.882353%,51.372549%);fill-opacity:1;" d="M 25.421875 32.992188 C 25.460938 32.851562 25.5 32.667969 25.539062 32.527344 L 19.261719 32.527344 C 19.238281 32.667969 19.179688 32.851562 19.160156 32.992188 Z M 25.421875 32.992188 "/>
<path style=" stroke:none;fill-rule:nonzero;fill:rgb(83.529412%,5.882353%,51.372549%);fill-opacity:1;" d="M 27.640625 27.273438 C 27.71875 27.132812 27.820312 26.953125 27.898438 26.8125 L 21.078125 26.8125 C 21 26.953125 20.960938 27.132812 20.878906 27.273438 Z M 27.640625 27.273438 "/>
<path style=" stroke:none;fill-rule:nonzero;fill:rgb(83.529412%,5.882353%,51.372549%);fill-opacity:1;" d="M 25.980469 31.085938 C 26.019531 30.945312 26.078125 30.765625 26.160156 30.625 L 19.761719 30.625 C 19.71875 30.765625 19.660156 30.945312 19.621094 31.085938 Z M 25.980469 31.085938 "/>
<path style=" stroke:none;fill-rule:nonzero;fill:rgb(83.529412%,5.882353%,51.372549%);fill-opacity:1;" d="M 26.71875 29.179688 C 26.800781 29.039062 26.859375 28.859375 26.921875 28.71875 L 20.320312 28.71875 C 20.28125 28.859375 20.21875 29.039062 20.140625 29.179688 Z M 26.71875 29.179688 "/>
<path style=" stroke:none;fill-rule:nonzero;fill:rgb(83.529412%,5.882353%,51.372549%);fill-opacity:1;" d="M 25.699219 32.027344 C 25.738281 31.886719 25.800781 31.707031 25.839844 31.566406 L 19.5 31.566406 C 19.460938 31.707031 19.421875 31.886719 19.378906 32.027344 Z M 25.699219 32.027344 "/>
<path style=" stroke:none;fill-rule:nonzero;fill:rgb(83.529412%,5.882353%,51.372549%);fill-opacity:1;" d="M 26.320312 30.121094 C 26.359375 29.980469 26.441406 29.800781 26.519531 29.660156 L 20.019531 29.660156 C 19.980469 29.800781 19.921875 29.980469 19.878906 30.121094 Z M 26.320312 30.121094 "/>
<path style=" stroke:none;fill-rule:nonzero;fill:rgb(83.529412%,5.882353%,51.372549%);fill-opacity:1;" d="M 20.121094 25.390625 C 20.300781 25.210938 20.441406 25.070312 20.601562 24.929688 L 20.078125 24.929688 C 19.980469 25.070312 19.878906 25.25 19.761719 25.390625 Z M 20.121094 25.390625 "/>
<path style=" stroke:none;fill-rule:nonzero;fill:rgb(83.529412%,5.882353%,51.372549%);fill-opacity:1;" d="M 22.820312 19.675781 C 23.179688 19.492188 23.578125 19.351562 23.941406 19.210938 L 22.738281 19.210938 C 22.539062 19.351562 22.320312 19.511719 22.140625 19.675781 Z M 22.820312 19.675781 "/>
<path style=" stroke:none;fill-rule:nonzero;fill:rgb(83.529412%,5.882353%,51.372549%);fill-opacity:1;" d="M 30.960938 22.523438 C 31.101562 22.382812 31.21875 22.199219 31.378906 22.058594 L 22.320312 22.058594 C 22.179688 22.199219 22.058594 22.382812 21.898438 22.523438 Z M 30.960938 22.523438 "/>
<path style=" stroke:none;fill-rule:nonzero;fill:rgb(83.529412%,5.882353%,51.372549%);fill-opacity:1;" d="M 33.339844 20.15625 L 24.179688 20.15625 C 24 20.296875 23.839844 20.457031 23.660156 20.617188 L 32.761719 20.617188 C 32.980469 20.457031 33.140625 20.316406 33.339844 20.15625 Z M 33.339844 20.15625 "/>
<path style=" stroke:none;fill-rule:nonzero;fill:rgb(83.529412%,5.882353%,51.372549%);fill-opacity:1;" d="M 22.261719 23.484375 C 22.460938 23.304688 22.679688 23.164062 22.859375 23.023438 L 21.5 23.023438 C 21.378906 23.164062 21.261719 23.324219 21.140625 23.484375 Z M 22.261719 23.484375 "/>
<path style=" stroke:none;fill-rule:nonzero;fill:rgb(83.529412%,5.882353%,51.372549%);fill-opacity:1;" d="M 33.898438 19.675781 C 34.101562 19.535156 34.28125 19.351562 34.480469 19.210938 L 25.300781 19.210938 C 25.101562 19.351562 24.941406 19.511719 24.738281 19.675781 Z M 33.898438 19.675781 "/>
<path style=" stroke:none;fill-rule:nonzero;fill:rgb(83.529412%,5.882353%,51.372549%);fill-opacity:1;" d="M 22.5 23.964844 C 22.398438 24.105469 22.320312 24.285156 22.261719 24.425781 L 29.441406 24.425781 C 29.558594 24.285156 29.660156 24.105469 29.78125 23.964844 Z M 22.5 23.964844 "/>
<path style=" stroke:none;fill-rule:nonzero;fill:rgb(83.529412%,5.882353%,51.372549%);fill-opacity:1;" d="M 23.039062 23.023438 C 22.941406 23.164062 22.839844 23.34375 22.78125 23.484375 L 30.160156 23.484375 C 30.28125 23.34375 30.398438 23.164062 30.539062 23.023438 C 30.539062 23.023438 23.039062 23.023438 23.039062 23.023438 Z M 23.039062 23.023438 "/>
<path style=" stroke:none;fill-rule:nonzero;fill:rgb(83.529412%,5.882353%,51.372549%);fill-opacity:1;" d="M 28.179688 26.332031 C 28.28125 26.191406 28.378906 26.011719 28.480469 25.871094 L 21.539062 25.871094 C 21.460938 26.011719 21.398438 26.191406 21.320312 26.332031 Z M 28.179688 26.332031 "/>
<path style=" stroke:none;fill-rule:nonzero;fill:rgb(83.529412%,5.882353%,51.372549%);fill-opacity:1;" d="M 22 24.929688 C 21.921875 25.070312 21.859375 25.25 21.761719 25.390625 L 28.78125 25.390625 C 28.878906 25.25 28.980469 25.070312 29.101562 24.929688 Z M 22 24.929688 "/>
<path style=" stroke:none;fill-rule:nonzero;fill:rgb(83.529412%,5.882353%,51.372549%);fill-opacity:1;" d="M 29.21875 53.90625 C 29.121094 53.765625 29.019531 53.585938 28.898438 53.445312 L 21.859375 53.445312 C 21.941406 53.585938 22.039062 53.765625 22.101562 53.90625 Z M 29.21875 53.90625 "/>
<path style=" stroke:none;fill-rule:nonzero;fill:rgb(83.529412%,5.882353%,51.372549%);fill-opacity:1;" d="M 27.039062 50.097656 C 26.960938 49.957031 26.898438 49.777344 26.820312 49.636719 L 20.261719 49.636719 C 20.300781 49.777344 20.378906 49.957031 20.441406 50.097656 Z M 27.039062 50.097656 "/>
<path style=" stroke:none;fill-rule:nonzero;fill:rgb(83.529412%,5.882353%,51.372549%);fill-opacity:1;" d="M 26.601562 49.15625 C 26.519531 49.015625 26.480469 48.832031 26.398438 48.695312 L 19.941406 48.695312 C 19.980469 48.832031 20.039062 49.015625 20.078125 49.15625 Z M 26.601562 49.15625 "/>
<path style=" stroke:none;fill-rule:nonzero;fill:rgb(83.529412%,5.882353%,51.372549%);fill-opacity:1;" d="M 26.21875 48.191406 C 26.179688 48.050781 26.121094 47.871094 26.039062 47.730469 L 19.679688 47.730469 C 19.71875 47.871094 19.78125 48.050781 19.800781 48.191406 Z M 26.21875 48.191406 "/>
<path style=" stroke:none;fill-rule:nonzero;fill:rgb(83.529412%,5.882353%,51.372549%);fill-opacity:1;" d="M 25.878906 47.25 C 25.839844 47.109375 25.78125 46.929688 25.738281 46.789062 L 19.398438 46.789062 C 19.441406 46.929688 19.480469 47.109375 19.519531 47.25 Z M 25.878906 47.25 "/>
<path style=" stroke:none;fill-rule:nonzero;fill:rgb(83.529412%,5.882353%,51.372549%);fill-opacity:1;" d="M 25.601562 46.285156 C 25.558594 46.144531 25.5 45.964844 25.460938 45.824219 L 19.179688 45.824219 C 19.199219 45.964844 19.261719 46.144531 19.28125 46.285156 Z M 25.601562 46.285156 "/>
<path style=" stroke:none;fill-rule:nonzero;fill:rgb(83.529412%,5.882353%,51.372549%);fill-opacity:1;" d="M 25.199219 33.933594 C 25.21875 33.792969 25.28125 33.613281 25.300781 33.472656 L 19.058594 33.472656 C 19.039062 33.613281 19.019531 33.792969 18.980469 33.933594 Z M 25.199219 33.933594 "/>
<path style=" stroke:none;fill-rule:nonzero;fill:rgb(83.529412%,5.882353%,51.372549%);fill-opacity:1;" d="M 25.359375 45.34375 C 25.320312 45.203125 25.28125 45.023438 25.238281 44.882812 L 19 44.882812 C 19.019531 45.023438 19.039062 45.203125 19.101562 45.34375 Z M 25.359375 45.34375 "/>
<path style=" stroke:none;fill-rule:nonzero;fill:rgb(83.529412%,5.882353%,51.372549%);fill-opacity:1;" d="M 25.359375 18.710938 C 25.71875 18.589844 26.058594 18.492188 26.398438 18.390625 C 26.261719 18.492188 26.101562 18.589844 25.960938 18.710938 L 35.140625 18.710938 C 35.359375 18.570312 35.578125 18.390625 35.800781 18.25 L 24.140625 18.25 C 23.921875 18.390625 23.679688 18.550781 23.441406 18.710938 Z M 25.359375 18.710938 "/>
<path style=" stroke:none;fill-rule:nonzero;fill:rgb(83.529412%,5.882353%,51.372549%);fill-opacity:1;" d="M 28.601562 52.964844 C 28.5 52.824219 28.398438 52.644531 28.300781 52.503906 L 21.398438 52.503906 C 21.480469 52.644531 21.539062 52.824219 21.621094 52.964844 Z M 28.601562 52.964844 "/>
<path style=" stroke:none;fill-rule:nonzero;fill:rgb(83.529412%,5.882353%,51.372549%);fill-opacity:1;" d="M 28 52.003906 C 27.898438 51.863281 27.820312 51.679688 27.738281 51.542969 L 21 51.542969 C 21.078125 51.679688 21.121094 51.863281 21.199219 52.003906 Z M 28 52.003906 "/>
<path style=" stroke:none;fill-rule:nonzero;fill:rgb(83.529412%,5.882353%,51.372549%);fill-opacity:1;" d="M 27.5 51.058594 C 27.421875 50.917969 27.320312 50.738281 27.261719 50.597656 L 20.601562 50.597656 C 20.640625 50.738281 20.71875 50.917969 20.78125 51.058594 Z M 27.5 51.058594 "/>
<path style=" stroke:none;fill-rule:nonzero;fill:rgb(83.529412%,5.882353%,51.372549%);fill-opacity:1;" d="M 24.738281 36.800781 C 24.761719 36.660156 24.761719 36.480469 24.78125 36.339844 L 18.660156 36.339844 C 18.640625 36.480469 18.640625 36.660156 18.621094 36.800781 Z M 24.738281 36.800781 "/>
<path style=" stroke:none;fill-rule:nonzero;fill:rgb(83.529412%,5.882353%,51.372549%);fill-opacity:1;" d="M 24.660156 37.742188 C 24.660156 37.601562 24.679688 37.421875 24.679688 37.28125 L 18.578125 37.28125 C 18.578125 37.421875 18.558594 37.601562 18.558594 37.742188 Z M 24.660156 37.742188 "/>
<path style=" stroke:none;fill-rule:nonzero;fill:rgb(83.529412%,5.882353%,51.372549%);fill-opacity:1;" d="M 24.859375 35.839844 C 24.878906 35.699219 24.898438 35.515625 24.941406 35.375 L 18.78125 35.375 C 18.761719 35.515625 18.738281 35.699219 18.738281 35.839844 Z M 24.859375 35.839844 "/>
<path style=" stroke:none;fill-rule:nonzero;fill:rgb(83.529412%,5.882353%,51.372549%);fill-opacity:1;" d="M 25.019531 34.894531 C 25.039062 34.753906 25.058594 34.574219 25.101562 34.433594 L 18.898438 34.433594 C 18.878906 34.574219 18.859375 34.753906 18.820312 34.894531 Z M 25.019531 34.894531 "/>
<path style=" stroke:none;fill-rule:nonzero;fill:rgb(83.529412%,5.882353%,51.372549%);fill-opacity:1;" d="M 24.71875 41.554688 C 24.699219 41.414062 24.699219 41.234375 24.699219 41.09375 L 18.578125 41.09375 C 18.578125 41.234375 18.601562 41.414062 18.601562 41.554688 Z M 24.71875 41.554688 "/>
<path style=" stroke:none;fill-rule:nonzero;fill:rgb(83.529412%,5.882353%,51.372549%);fill-opacity:1;" d="M 24.839844 42.476562 C 24.820312 42.335938 24.800781 42.15625 24.800781 42.015625 L 18.660156 42.015625 C 18.679688 42.15625 18.679688 42.335938 18.699219 42.476562 Z M 24.839844 42.476562 "/>
<path style=" stroke:none;fill-rule:nonzero;fill:rgb(83.529412%,5.882353%,51.372549%);fill-opacity:1;" d="M 24.960938 43.4375 C 24.941406 43.296875 24.921875 43.117188 24.878906 42.976562 L 18.71875 42.976562 C 18.738281 43.117188 18.738281 43.296875 18.761719 43.4375 Z M 24.960938 43.4375 "/>
<path style=" stroke:none;fill-rule:nonzero;fill:rgb(83.529412%,5.882353%,51.372549%);fill-opacity:1;" d="M 24.640625 38.707031 C 24.640625 38.566406 24.640625 38.386719 24.640625 38.246094 L 18.539062 38.246094 C 18.539062 38.386719 18.539062 38.566406 18.539062 38.707031 Z M 24.640625 38.707031 "/>
<path style=" stroke:none;fill-rule:nonzero;fill:rgb(83.529412%,5.882353%,51.372549%);fill-opacity:1;" d="M 25.140625 44.382812 C 25.121094 44.242188 25.101562 44.0625 25.039062 43.921875 L 18.839844 43.921875 C 18.859375 44.0625 18.878906 44.242188 18.921875 44.382812 Z M 25.140625 44.382812 "/>
<path style=" stroke:none;fill-rule:nonzero;fill:rgb(83.529412%,5.882353%,51.372549%);fill-opacity:1;" d="M 42.738281 17.308594 L 42.21875 17.308594 C 42.21875 17.328125 42.199219 17.347656 42.199219 17.386719 C 42.199219 17.488281 42.21875 17.609375 42.21875 17.769531 L 42.339844 17.769531 C 42.480469 17.589844 42.621094 17.449219 42.738281 17.308594 Z M 42.738281 17.308594 "/>
<path style=" stroke:none;fill-rule:nonzero;fill:rgb(83.529412%,5.882353%,51.372549%);fill-opacity:1;" d="M 24.640625 40.128906 L 18.539062 40.128906 C 18.539062 40.230469 18.539062 40.351562 18.539062 40.449219 C 18.539062 40.492188 18.539062 40.550781 18.539062 40.589844 L 24.679688 40.589844 C 24.640625 40.429688 24.640625 40.289062 24.640625 40.128906 Z M 24.640625 40.128906 "/>
<path style=" stroke:none;fill-rule:nonzero;fill:rgb(83.529412%,5.882353%,51.372549%);fill-opacity:1;" d="M 32.980469 65.800781 C 33.21875 65.941406 33.460938 66.121094 33.71875 66.261719 L 66.339844 66.261719 C 66.578125 66.121094 66.820312 65.941406 67.078125 65.800781 Z M 32.980469 65.800781 "/>
<path style=" stroke:none;fill-rule:nonzero;fill:rgb(83.529412%,5.882353%,51.372549%);fill-opacity:1;" d="M 31.578125 64.859375 C 31.800781 65 32.019531 65.179688 32.238281 65.320312 L 67.78125 65.320312 C 68 65.179688 68.21875 65 68.441406 64.859375 Z M 31.578125 64.859375 "/>
<path style=" stroke:none;fill-rule:nonzero;fill:rgb(83.529412%,5.882353%,51.372549%);fill-opacity:1;" d="M 36.320312 67.707031 C 36.660156 67.886719 37 68.027344 37.339844 68.167969 L 62.679688 68.167969 C 63.019531 68.027344 63.359375 67.867188 63.679688 67.707031 Z M 36.320312 67.707031 "/>
<path style=" stroke:none;fill-rule:nonzero;fill:rgb(83.529412%,5.882353%,51.372549%);fill-opacity:1;" d="M 34.539062 66.761719 C 34.800781 66.902344 35.101562 67.082031 35.398438 67.222656 L 64.679688 67.222656 C 64.980469 67.082031 65.238281 66.902344 65.5 66.761719 Z M 34.539062 66.761719 "/>
<path style=" stroke:none;fill-rule:nonzero;fill:rgb(83.529412%,5.882353%,51.372549%);fill-opacity:1;" d="M 31.839844 21.578125 C 31.980469 21.4375 32.160156 21.257812 32.300781 21.117188 L 23.199219 21.117188 C 23.058594 21.257812 22.898438 21.417969 22.761719 21.578125 Z M 31.839844 21.578125 "/>
<path style=" stroke:none;fill-rule:nonzero;fill:rgb(83.529412%,5.882353%,51.372549%);fill-opacity:1;" d="M 50.140625 14.902344 C 49.761719 14.78125 49.378906 14.640625 49.019531 14.441406 L 47.578125 14.441406 C 47.621094 14.539062 47.660156 14.640625 47.679688 14.742188 C 47.539062 14.640625 47.441406 14.539062 47.339844 14.441406 L 27.21875 14.441406 C 28.378906 14.679688 29.441406 14.742188 30.339844 14.660156 C 30.238281 14.742188 30.140625 14.839844 30.039062 14.902344 Z M 50.140625 14.902344 "/>
<path style=" stroke:none;fill-rule:nonzero;fill:rgb(83.529412%,5.882353%,51.372549%);fill-opacity:1;" d="M 40.199219 15.863281 C 40.378906 15.785156 40.558594 15.722656 40.738281 15.644531 C 40.71875 15.722656 40.660156 15.785156 40.640625 15.863281 L 41.800781 15.863281 C 42.378906 15.503906 43.058594 15.34375 43.800781 15.480469 C 43.621094 15.601562 43.480469 15.742188 43.320312 15.863281 L 55.941406 15.863281 C 55.941406 15.785156 55.941406 15.722656 55.941406 15.664062 C 55.941406 15.542969 55.898438 15.441406 55.820312 15.402344 L 29.460938 15.402344 C 29.320312 15.523438 29.140625 15.664062 29 15.785156 C 28.960938 15.804688 28.878906 15.824219 28.820312 15.863281 Z M 40.199219 15.863281 "/>
<path style=" stroke:none;fill-rule:nonzero;fill:rgb(83.529412%,5.882353%,51.372549%);fill-opacity:1;" d="M 21.519531 20.15625 C 21.339844 20.296875 21.179688 20.414062 21 20.578125 C 21.261719 20.4375 21.519531 20.277344 21.78125 20.15625 Z M 21.519531 20.15625 "/>
<path style=" stroke:none;fill-rule:nonzero;fill:rgb(83.529412%,5.882353%,51.372549%);fill-opacity:1;" d="M 56.921875 70.070312 C 57.519531 69.929688 58.140625 69.769531 58.738281 69.609375 L 41.28125 69.609375 C 41.859375 69.792969 42.480469 69.929688 43.058594 70.070312 Z M 56.921875 70.070312 "/>
<path style=" stroke:none;fill-rule:nonzero;fill:rgb(83.529412%,5.882353%,51.372549%);fill-opacity:1;" d="M 24.621094 39.308594 C 24.621094 39.269531 24.621094 39.207031 24.621094 39.1875 L 18.5 39.1875 C 18.5 39.328125 18.5 39.507812 18.5 39.648438 L 24.621094 39.648438 C 24.621094 39.527344 24.621094 39.429688 24.621094 39.308594 Z M 24.621094 39.308594 "/>
<path style=" stroke:none;fill-rule:nonzero;fill:rgb(83.529412%,5.882353%,51.372549%);fill-opacity:1;" d="M 52.039062 4.953125 L 36.121094 4.953125 C 36.339844 5.074219 36.558594 5.175781 36.78125 5.292969 C 36.878906 5.335938 36.980469 5.394531 37.078125 5.414062 L 58.960938 5.414062 C 58.859375 5.292969 58.761719 5.195312 58.660156 5.074219 C 58.621094 5.035156 58.578125 4.992188 58.539062 4.953125 L 54.859375 4.953125 C 53.921875 5.035156 53 5.015625 52.039062 4.953125 Z M 52.039062 4.953125 "/>
<path style=" stroke:none;fill-rule:nonzero;fill:rgb(83.529412%,5.882353%,51.372549%);fill-opacity:1;" d="M 33.480469 5.894531 L 30.761719 5.894531 C 30.859375 6.078125 30.960938 6.21875 31.078125 6.355469 L 41.398438 6.355469 C 41.660156 6.136719 41.820312 6.097656 42.199219 6.035156 C 42.078125 6.15625 41.980469 6.257812 41.878906 6.355469 L 46.140625 6.355469 C 46.960938 6.257812 47.800781 6.15625 48.640625 6.054688 C 48.539062 6.175781 48.460938 6.277344 48.398438 6.355469 L 59.71875 6.355469 C 59.71875 6.316406 59.679688 6.238281 59.601562 6.15625 C 59.5 6.054688 59.421875 5.957031 59.359375 5.894531 L 37.839844 5.894531 C 36.261719 6.476562 34.859375 6.335938 33.480469 5.894531 Z M 33.480469 5.894531 "/>
<path style=" stroke:none;fill-rule:nonzero;fill:rgb(83.529412%,5.882353%,51.372549%);fill-opacity:1;" d="M 47.980469 6.859375 C 47.878906 6.960938 47.78125 7.058594 47.621094 7.21875 C 47.578125 7.261719 47.539062 7.300781 47.519531 7.320312 L 58.898438 7.320312 C 59.101562 7.179688 59.261719 7.019531 59.441406 6.859375 Z M 47.980469 6.859375 "/>
<path style=" stroke:none;fill-rule:nonzero;fill:rgb(83.529412%,5.882353%,51.372549%);fill-opacity:1;" d="M 36.539062 17.769531 C 36.78125 17.589844 37.058594 17.449219 37.320312 17.308594 L 25.71875 17.308594 C 25.460938 17.449219 25.179688 17.609375 24.921875 17.769531 Z M 36.539062 17.769531 "/>
<path style=" stroke:none;fill-rule:nonzero;fill:rgb(83.529412%,5.882353%,51.372549%);fill-opacity:1;" d="M 55.378906 7.800781 C 55.621094 7.921875 55.839844 8.0625 56.039062 8.261719 L 57.519531 8.261719 C 57.601562 8.0625 57.699219 7.921875 57.878906 7.800781 Z M 55.378906 7.800781 "/>
<path style=" stroke:none;fill-rule:nonzero;fill:rgb(83.529412%,5.882353%,51.372549%);fill-opacity:1;" d="M 75.300781 39.648438 L 81.421875 39.648438 C 81.421875 39.527344 81.421875 39.429688 81.421875 39.308594 C 81.421875 39.269531 81.421875 39.207031 81.421875 39.1875 L 75.339844 39.1875 C 75.339844 39.328125 75.339844 39.488281 75.300781 39.648438 Z M 75.300781 39.648438 "/>
<path style=" stroke:none;fill-rule:nonzero;fill:rgb(83.529412%,5.882353%,51.372549%);fill-opacity:1;" d="M 72.800781 28.21875 L 79.421875 28.21875 C 79.378906 28.078125 79.320312 27.917969 79.28125 27.796875 C 79.28125 27.777344 79.28125 27.777344 79.261719 27.757812 L 72.558594 27.757812 C 72.621094 27.917969 72.71875 28.078125 72.800781 28.21875 Z M 72.800781 28.21875 "/>
<path style=" stroke:none;fill-rule:nonzero;fill:rgb(83.529412%,5.882353%,51.372549%);fill-opacity:1;" d="M 38.5 68.667969 C 38.921875 68.847656 39.320312 68.988281 39.738281 69.128906 L 60.238281 69.128906 C 60.660156 68.988281 61.058594 68.828125 61.480469 68.667969 Z M 38.5 68.667969 "/>
<path style=" stroke:none;fill-rule:nonzero;fill:rgb(83.529412%,5.882353%,51.372549%);fill-opacity:1;" d="M 68.039062 20.617188 L 74.980469 20.617188 C 74.878906 20.476562 74.761719 20.316406 74.660156 20.175781 C 74.660156 20.175781 74.660156 20.175781 74.660156 20.15625 L 67.660156 20.15625 C 67.800781 20.316406 67.921875 20.476562 68.039062 20.617188 Z M 68.039062 20.617188 "/>
<path style=" stroke:none;fill-rule:nonzero;fill:rgb(83.529412%,5.882353%,51.372549%);fill-opacity:1;" d="M 34.480469 2.546875 C 34.261719 2.425781 34.039062 2.304688 33.820312 2.164062 C 33.78125 2.125 33.71875 2.144531 33.679688 2.207031 C 33.699219 2.328125 33.761719 2.425781 33.800781 2.546875 C 33.800781 2.546875 34.480469 2.546875 34.480469 2.546875 Z M 34.480469 2.546875 "/>
<path style=" stroke:none;fill-rule:nonzero;fill:rgb(83.529412%,5.882353%,51.372549%);fill-opacity:1;" d="M 52.558594 10.75 C 53 10.828125 53.539062 10.949219 54.101562 11.089844 L 58.359375 11.089844 C 56 10.75 53.980469 10.730469 52.558594 10.75 Z M 52.558594 10.75 "/>
<path style=" stroke:none;fill-rule:nonzero;fill:rgb(83.529412%,5.882353%,51.372549%);fill-opacity:1;" d="M 46.539062 12.996094 C 46.519531 12.855469 46.5 12.675781 46.460938 12.535156 L 32.398438 12.535156 C 31.941406 12.714844 31.460938 12.855469 30.941406 12.996094 Z M 46.539062 12.996094 "/>
<path style=" stroke:none;fill-rule:nonzero;fill:rgb(83.529412%,5.882353%,51.372549%);fill-opacity:1;" d="M 46.78125 16.34375 C 48.378906 16.726562 50.039062 16.785156 51.699219 16.726562 C 52.238281 16.707031 52.738281 16.726562 53.28125 16.726562 C 53.421875 16.726562 53.539062 16.726562 53.621094 16.804688 L 55.378906 16.804688 C 55.460938 16.765625 55.519531 16.707031 55.601562 16.6875 C 55.738281 16.605469 55.820312 16.484375 55.859375 16.34375 Z M 46.78125 16.34375 "/>
<path style=" stroke:none;fill-rule:nonzero;fill:rgb(83.529412%,5.882353%,51.372549%);fill-opacity:1;" d="M 46.5 12.054688 C 46.5 11.914062 46.519531 11.730469 46.578125 11.589844 L 34.859375 11.589844 C 34.519531 11.730469 34.160156 11.894531 33.738281 12.054688 Z M 46.5 12.054688 "/>
<path style=" stroke:none;fill-rule:nonzero;fill:rgb(83.529412%,5.882353%,51.372549%);fill-opacity:1;" d="M 29.941406 54.871094 C 29.820312 54.730469 29.71875 54.550781 29.601562 54.410156 L 22.398438 54.410156 C 22.480469 54.550781 22.578125 54.730469 22.640625 54.871094 Z M 29.941406 54.871094 "/>
<path style=" stroke:none;fill-rule:nonzero;fill:rgb(83.529412%,5.882353%,51.372549%);fill-opacity:1;" d="M 38.179688 16.804688 C 38.5 16.625 38.78125 16.484375 39.101562 16.34375 L 27.621094 16.34375 C 27.300781 16.484375 26.960938 16.644531 26.621094 16.804688 Z M 38.179688 16.804688 "/>
<path style=" stroke:none;fill-rule:nonzero;fill:rgb(83.529412%,5.882353%,51.372549%);fill-opacity:1;" d="M 53.898438 17.308594 C 53.898438 17.488281 53.820312 17.628906 53.699219 17.769531 L 54.160156 17.769531 C 54.378906 17.628906 54.578125 17.46875 54.761719 17.308594 Z M 53.898438 17.308594 "/>
<path style=" stroke:none;fill-rule:nonzero;fill:rgb(83.529412%,5.882353%,51.372549%);fill-opacity:1;" d="M 40.761719 16.804688 C 40.800781 16.804688 40.800781 16.804688 40.761719 16.804688 C 40.898438 16.625 41.058594 16.484375 41.179688 16.34375 L 40.441406 16.34375 C 40.421875 16.425781 40.398438 16.464844 40.359375 16.546875 C 40.339844 16.625 40.320312 16.726562 40.320312 16.804688 Z M 40.761719 16.804688 "/>
<path style=" stroke:none;fill-rule:nonzero;fill:rgb(83.529412%,5.882353%,51.372549%);fill-opacity:1;" d="M 43.21875 16.804688 C 43.421875 16.625 43.601562 16.464844 43.859375 16.34375 L 42.839844 16.34375 C 42.71875 16.484375 42.601562 16.644531 42.480469 16.804688 Z M 43.21875 16.804688 "/>
<path style=" stroke:none;fill-rule:nonzero;fill:rgb(83.529412%,5.882353%,51.372549%);fill-opacity:1;" d="M 63.378906 15.863281 L 70.320312 15.863281 C 70.101562 15.683594 69.878906 15.542969 69.679688 15.402344 L 62.78125 15.402344 C 62.960938 15.542969 63.160156 15.722656 63.378906 15.863281 Z M 63.378906 15.863281 "/>
<path style=" stroke:none;fill-rule:nonzero;fill:rgb(83.529412%,5.882353%,51.372549%);fill-opacity:1;" d="M 58.980469 12.996094 L 65.261719 12.996094 C 65.078125 12.914062 64.941406 12.855469 64.78125 12.796875 C 64.679688 12.714844 64.558594 12.613281 64.441406 12.535156 L 58.039062 12.535156 C 58.359375 12.695312 58.679688 12.855469 58.980469 12.996094 Z M 58.980469 12.996094 "/>
<path style=" stroke:none;fill-rule:nonzero;fill:rgb(83.529412%,5.882353%,51.372549%);fill-opacity:1;" d="M 46.71875 13.535156 L 29 13.515625 C 27.800781 13.757812 26.539062 13.9375 25.300781 13.9375 C 25.378906 13.957031 25.421875 13.976562 25.5 14.019531 L 47 14.019531 C 46.800781 13.757812 46.78125 13.71875 46.71875 13.535156 Z M 46.71875 13.535156 "/>
<path style=" stroke:none;fill-rule:nonzero;fill:rgb(83.529412%,5.882353%,51.372549%);fill-opacity:1;" d="M 46.660156 11.128906 C 46.699219 10.988281 46.78125 10.808594 46.839844 10.667969 L 36.859375 10.667969 C 36.78125 10.6875 36.679688 10.75 36.621094 10.769531 C 36.621094 10.769531 36.621094 10.769531 36.601562 10.769531 C 36.359375 10.890625 36.140625 10.988281 35.898438 11.109375 Z M 46.660156 11.128906 "/>
<path style=" stroke:none;fill-rule:nonzero;fill:rgb(83.529412%,5.882353%,51.372549%);fill-opacity:1;" d="M 61.421875 14.441406 C 61.640625 14.578125 61.859375 14.742188 62.101562 14.902344 L 69.28125 14.902344 C 69.160156 14.761719 69.039062 14.578125 68.921875 14.441406 Z M 61.421875 14.441406 "/>
<path style=" stroke:none;fill-rule:nonzero;fill:rgb(83.529412%,5.882353%,51.372549%);fill-opacity:1;" d="M 54.960938 13.957031 L 55.160156 13.957031 C 55.140625 13.917969 55.078125 13.859375 55.058594 13.777344 C 55.039062 13.839844 55.019531 13.898438 54.960938 13.957031 Z M 54.960938 13.957031 "/>
<path style=" stroke:none;fill-rule:nonzero;fill:rgb(83.529412%,5.882353%,51.372549%);fill-opacity:1;" d="M 46.878906 12.59375 C 46.859375 12.734375 46.878906 12.894531 46.878906 13.035156 L 47.339844 13.035156 C 47.320312 13.015625 47.300781 12.957031 47.261719 12.933594 C 47.179688 12.773438 47.121094 12.535156 46.878906 12.59375 Z M 46.878906 12.59375 "/>
<path style=" stroke:none;fill-rule:nonzero;fill:rgb(83.529412%,5.882353%,51.372549%);fill-opacity:1;" d="M 47.179688 13.816406 C 47.21875 13.859375 47.261719 13.917969 47.300781 13.957031 L 48.300781 13.957031 C 48.121094 13.816406 47.960938 13.65625 47.78125 13.496094 L 47.019531 13.496094 C 47.058594 13.617188 47.121094 13.71875 47.179688 13.816406 Z M 47.179688 13.816406 "/>
<path style=" stroke:none;fill-rule:nonzero;fill:rgb(83.529412%,5.882353%,51.372549%);fill-opacity:1;" d="M 55.679688 11.589844 C 56.058594 11.730469 56.480469 11.894531 56.921875 12.054688 L 63.71875 12.054688 C 63.460938 11.914062 63.160156 11.730469 62.839844 11.589844 Z M 55.679688 11.589844 "/>
<path style=" stroke:none;fill-rule:nonzero;fill:rgb(83.529412%,5.882353%,51.372549%);fill-opacity:1;" d="M 54.28125 14.902344 L 55.160156 14.902344 C 55.160156 14.878906 55.160156 14.859375 55.160156 14.820312 C 55.179688 14.640625 55.179688 14.519531 55.199219 14.441406 L 54.679688 14.441406 C 54.601562 14.640625 54.460938 14.78125 54.28125 14.902344 Z M 54.28125 14.902344 "/>
<path style=" stroke:none;fill-rule:nonzero;fill:rgb(83.529412%,5.882353%,51.372549%);fill-opacity:1;" d="M 70.941406 24.929688 C 71.039062 25.070312 71.121094 25.25 71.199219 25.390625 L 78.039062 25.390625 C 77.941406 25.210938 77.859375 25.070312 77.800781 24.929688 Z M 70.941406 24.929688 "/>
<path style=" stroke:none;fill-rule:nonzero;fill:rgb(83.529412%,5.882353%,51.372549%);fill-opacity:1;" d="M 74.839844 34.414062 C 74.859375 34.554688 74.878906 34.734375 74.921875 34.875 L 81.101562 34.875 C 81.078125 34.734375 81.058594 34.554688 81.019531 34.414062 Z M 74.839844 34.414062 "/>
<path style=" stroke:none;fill-rule:nonzero;fill:rgb(83.529412%,5.882353%,51.372549%);fill-opacity:1;" d="M 66.859375 19.210938 C 67 19.351562 67.121094 19.535156 67.28125 19.675781 L 74.300781 19.675781 C 74.179688 19.535156 74.039062 19.351562 73.921875 19.210938 Z M 66.859375 19.210938 "/>
<path style=" stroke:none;fill-rule:nonzero;fill:rgb(83.529412%,5.882353%,51.372549%);fill-opacity:1;" d="M 65.019531 17.308594 C 65.199219 17.449219 65.339844 17.628906 65.5 17.769531 L 72.558594 17.769531 C 72.519531 17.628906 72.441406 17.449219 72.359375 17.308594 Z M 65.019531 17.308594 "/>
<path style=" stroke:none;fill-rule:nonzero;fill:rgb(83.529412%,5.882353%,51.372549%);fill-opacity:1;" d="M 68.441406 21.117188 C 68.558594 21.257812 68.660156 21.4375 68.78125 21.578125 L 75.699219 21.578125 C 75.578125 21.4375 75.480469 21.257812 75.359375 21.117188 Z M 68.441406 21.117188 "/>
<path style=" stroke:none;fill-rule:nonzero;fill:rgb(83.529412%,5.882353%,51.372549%);fill-opacity:1;" d="M 69.121094 22.058594 C 69.21875 22.199219 69.339844 22.382812 69.441406 22.523438 L 76.359375 22.523438 C 76.238281 22.339844 76.140625 22.199219 76.039062 22.058594 Z M 69.121094 22.058594 "/>
<path style=" stroke:none;fill-rule:nonzero;fill:rgb(83.529412%,5.882353%,51.372549%);fill-opacity:1;" d="M 69.78125 23.023438 C 69.878906 23.164062 69.980469 23.34375 70.078125 23.484375 L 76.980469 23.484375 C 76.878906 23.304688 76.78125 23.164062 76.679688 23.023438 C 76.679688 23.023438 69.78125 23.023438 69.78125 23.023438 Z M 69.78125 23.023438 "/>
<path style=" stroke:none;fill-rule:nonzero;fill:rgb(83.529412%,5.882353%,51.372549%);fill-opacity:1;" d="M 63.960938 16.34375 C 64.140625 16.484375 64.320312 16.644531 64.5 16.804688 L 72.140625 16.804688 C 72.058594 16.664062 71.960938 16.484375 71.878906 16.34375 Z M 63.960938 16.34375 "/>
<path style=" stroke:none;fill-rule:nonzero;fill:rgb(83.529412%,5.882353%,51.372549%);fill-opacity:1;" d="M 66.519531 13.558594 C 66.480469 13.535156 66.421875 13.515625 66.378906 13.476562 L 59.898438 13.476562 C 60.160156 13.617188 60.421875 13.777344 60.679688 13.9375 L 68.480469 13.9375 C 68.339844 13.796875 68.160156 13.617188 68 13.476562 L 66.460938 13.476562 C 66.480469 13.515625 66.519531 13.535156 66.519531 13.558594 Z M 66.519531 13.558594 "/>
<path style=" stroke:none;fill-rule:nonzero;fill:rgb(83.529412%,5.882353%,51.372549%);fill-opacity:1;" d="M 69.800781 13.957031 L 69.980469 13.957031 C 69.859375 13.859375 69.761719 13.738281 69.640625 13.636719 C 69.699219 13.757812 69.761719 13.859375 69.800781 13.957031 Z M 69.800781 13.957031 "/>
<path style=" stroke:none;fill-rule:nonzero;fill:rgb(83.529412%,5.882353%,51.372549%);fill-opacity:1;" d="M 70.441406 15.402344 C 70.480469 15.542969 70.558594 15.722656 70.621094 15.863281 L 71.601562 15.863281 C 71.5 15.722656 71.378906 15.542969 71.28125 15.402344 Z M 70.441406 15.402344 "/>
<path style=" stroke:none;fill-rule:nonzero;fill:rgb(83.529412%,5.882353%,51.372549%);fill-opacity:1;" d="M 70.039062 14.441406 C 70.121094 14.578125 70.179688 14.761719 70.238281 14.902344 L 70.839844 14.902344 C 70.71875 14.761719 70.578125 14.578125 70.421875 14.441406 Z M 70.039062 14.441406 "/>
<path style=" stroke:none;fill-rule:nonzero;fill:rgb(83.529412%,5.882353%,51.372549%);fill-opacity:1;" d="M 74.121094 31.566406 C 74.160156 31.707031 74.21875 31.886719 74.261719 32.027344 L 80.601562 32.027344 C 80.558594 31.886719 80.519531 31.707031 80.480469 31.566406 Z M 74.121094 31.566406 "/>
<path style=" stroke:none;fill-rule:nonzero;fill:rgb(83.529412%,5.882353%,51.372549%);fill-opacity:1;" d="M 73.800781 30.605469 C 73.839844 30.746094 73.898438 30.925781 73.980469 31.066406 L 80.359375 31.066406 C 80.320312 30.925781 80.28125 30.746094 80.238281 30.605469 Z M 73.800781 30.605469 "/>
<path style=" stroke:none;fill-rule:nonzero;fill:rgb(83.529412%,5.882353%,51.372549%);fill-opacity:1;" d="M 74.398438 32.507812 C 74.441406 32.648438 74.480469 32.828125 74.519531 32.96875 L 80.78125 32.96875 C 80.761719 32.828125 80.699219 32.648438 80.679688 32.507812 Z M 74.398438 32.507812 "/>
<path style=" stroke:none;fill-rule:nonzero;fill:rgb(83.529412%,5.882353%,51.372549%);fill-opacity:1;" d="M 70.378906 23.964844 C 70.480469 24.105469 70.578125 24.285156 70.679688 24.425781 L 77.519531 24.425781 C 77.421875 24.246094 77.339844 24.105469 77.261719 23.964844 Z M 70.378906 23.964844 "/>
<path style=" stroke:none;fill-rule:nonzero;fill:rgb(83.529412%,5.882353%,51.372549%);fill-opacity:1;" d="M 74.640625 33.472656 C 74.660156 33.613281 74.71875 33.792969 74.738281 33.933594 L 80.960938 33.933594 C 80.941406 33.792969 80.921875 33.613281 80.878906 33.472656 Z M 74.640625 33.472656 "/>
<path style=" stroke:none;fill-rule:nonzero;fill:rgb(83.529412%,5.882353%,51.372549%);fill-opacity:1;" d="M 72.039062 26.792969 C 72.140625 26.933594 72.21875 27.113281 72.300781 27.253906 L 79.019531 27.253906 C 78.941406 27.074219 78.878906 26.933594 78.800781 26.792969 Z M 72.039062 26.792969 "/>
<path style=" stroke:none;fill-rule:nonzero;fill:rgb(83.529412%,5.882353%,51.372549%);fill-opacity:1;" d="M 71.480469 25.851562 C 71.578125 25.992188 71.679688 26.171875 71.738281 26.3125 L 78.539062 26.3125 C 78.460938 26.132812 78.359375 25.992188 78.300781 25.851562 Z M 71.480469 25.851562 "/>
<path style=" stroke:none;fill-rule:nonzero;fill:rgb(83.529412%,5.882353%,51.372549%);fill-opacity:1;" d="M 73.441406 29.660156 C 73.519531 29.800781 73.558594 29.980469 73.640625 30.121094 L 80.101562 30.121094 C 80.058594 29.980469 80 29.800781 79.960938 29.660156 Z M 73.441406 29.660156 "/>
<path style=" stroke:none;fill-rule:nonzero;fill:rgb(83.529412%,5.882353%,51.372549%);fill-opacity:1;" d="M 73.019531 28.699219 C 73.101562 28.839844 73.160156 29.019531 73.238281 29.160156 L 79.800781 29.160156 C 79.761719 29.019531 79.679688 28.839844 79.621094 28.699219 Z M 73.019531 28.699219 "/>
<path style=" stroke:none;fill-rule:nonzero;fill:rgb(83.529412%,5.882353%,51.372549%);fill-opacity:1;" d="M 65.980469 18.25 C 66.121094 18.390625 66.28125 18.570312 66.421875 18.710938 L 73.460938 18.710938 C 73.320312 18.570312 73.160156 18.390625 73.019531 18.25 Z M 65.980469 18.25 "/>
<path style=" stroke:none;fill-rule:nonzero;fill:rgb(83.529412%,5.882353%,51.372549%);fill-opacity:1;" d="M 38.21875 3.992188 L 34.738281 3.992188 C 34.921875 4.171875 35.101562 4.3125 35.300781 4.453125 L 41.480469 4.453125 C 40.378906 4.410156 39.28125 4.230469 38.21875 3.992188 Z M 38.21875 3.992188 "/>
<path style=" stroke:none;fill-rule:nonzero;fill:rgb(83.529412%,5.882353%,51.372549%);fill-opacity:1;" d="M 30.179688 4.433594 L 30.21875 4.453125 C 30.21875 4.453125 30.199219 4.433594 30.179688 4.433594 Z M 30.179688 4.433594 "/>
<path style=" stroke:none;fill-rule:nonzero;fill:rgb(83.529412%,5.882353%,51.372549%);fill-opacity:1;" d="M 32.238281 5.414062 C 31.898438 5.273438 31.578125 5.113281 31.238281 4.953125 L 30.339844 4.953125 C 30.378906 5.132812 30.460938 5.273438 30.539062 5.414062 Z M 32.238281 5.414062 "/>
<path style=" stroke:none;fill-rule:nonzero;fill:rgb(83.529412%,5.882353%,51.372549%);fill-opacity:1;" d="M 65.640625 12.535156 C 65.78125 12.675781 65.941406 12.855469 66.058594 12.996094 L 67.398438 12.996094 C 67.199219 12.855469 66.980469 12.675781 66.738281 12.535156 Z M 65.640625 12.535156 "/>
<path style=" stroke:none;fill-rule:nonzero;fill:rgb(83.529412%,5.882353%,51.372549%);fill-opacity:1;" d="M 44.039062 4.453125 L 50.441406 4.453125 C 50.359375 4.410156 50.300781 4.351562 50.238281 4.273438 C 50.121094 4.152344 49.980469 4.050781 49.859375 3.972656 L 47.980469 3.972656 C 46.660156 4.25 45.339844 4.390625 44.039062 4.453125 Z M 44.039062 4.453125 "/>
<path style=" stroke:none;fill-rule:nonzero;fill:rgb(83.529412%,5.882353%,51.372549%);fill-opacity:1;" d="M 34.019531 3.046875 C 34.121094 3.230469 34.21875 3.371094 34.320312 3.507812 L 36.601562 3.507812 C 36.21875 3.371094 35.839844 3.207031 35.460938 3.046875 Z M 34.019531 3.046875 "/>
<path style=" stroke:none;fill-rule:nonzero;fill:rgb(83.529412%,5.882353%,51.372549%);fill-opacity:1;" d="M 45.761719 70.574219 C 47 70.753906 48.261719 70.835938 49.539062 70.875 C 51.140625 70.894531 52.738281 70.792969 54.261719 70.574219 Z M 45.761719 70.574219 "/>
<path style=" stroke:none;fill-rule:nonzero;fill:rgb(83.529412%,5.882353%,51.372549%);fill-opacity:1;" d="M 56.78125 9.707031 C 56.78125 9.726562 56.78125 9.726562 56.78125 9.746094 C 56.800781 9.746094 56.820312 9.726562 56.820312 9.707031 Z M 56.78125 9.707031 "/>
<path style=" stroke:none;fill-rule:nonzero;fill:rgb(83.529412%,5.882353%,51.372549%);fill-opacity:1;" d="M 57.078125 4.453125 L 57.78125 4.453125 C 57.578125 4.390625 57.339844 4.351562 57.078125 4.453125 Z M 57.078125 4.453125 "/>
<path style=" stroke:none;fill-rule:nonzero;fill:rgb(83.529412%,5.882353%,51.372549%);fill-opacity:1;" d="M 56.398438 8.765625 C 56.480469 8.90625 56.539062 9.066406 56.621094 9.226562 L 57.320312 9.226562 C 57.398438 9.085938 57.441406 8.925781 57.460938 8.765625 Z M 56.398438 8.765625 "/>
<path style=" stroke:none;fill-rule:nonzero;fill:rgb(83.529412%,5.882353%,51.372549%);fill-opacity:1;" d="M 58.519531 10.648438 C 58.859375 10.789062 59.199219 10.949219 59.539062 11.109375 L 61.621094 11.109375 C 60.960938 10.890625 60.179688 10.75 59.359375 10.648438 Z M 58.519531 10.648438 "/>
<path style=" stroke:none;fill-rule:nonzero;fill:rgb(83.529412%,5.882353%,51.372549%);fill-opacity:1;" d="M 47.320312 7.320312 C 46.839844 7.140625 46.558594 7.019531 46.179688 6.859375 L 41.441406 6.859375 C 41.261719 7.058594 41.261719 7.097656 41.121094 7.320312 Z M 47.320312 7.320312 "/>
<path style=" stroke:none;fill-rule:nonzero;fill:rgb(83.529412%,5.882353%,51.372549%);fill-opacity:1;" d="M 39.140625 9.707031 C 38.761719 9.847656 38.339844 10.007812 37.941406 10.167969 L 47.101562 10.167969 C 47.199219 9.988281 47.300781 9.847656 47.421875 9.707031 Z M 39.140625 9.707031 "/>
<path style=" stroke:none;fill-rule:nonzero;fill:rgb(83.529412%,5.882353%,51.372549%);fill-opacity:1;" d="M 64.679688 11.589844 C 64.859375 11.730469 65.019531 11.914062 65.160156 12.054688 L 65.941406 12.054688 C 65.640625 11.871094 65.339844 11.730469 65 11.589844 Z M 64.679688 11.589844 "/>
<path style=" stroke:none;fill-rule:nonzero;fill:rgb(83.529412%,5.882353%,51.372549%);fill-opacity:1;" d="M 40.820312 7.800781 C 40.738281 7.941406 40.679688 8.121094 40.621094 8.261719 L 49.320312 8.261719 C 49.738281 8.0625 50.179688 7.921875 50.578125 7.800781 Z M 40.820312 7.800781 "/>
<path style=" stroke:none;fill-rule:nonzero;fill:rgb(83.529412%,5.882353%,51.372549%);fill-opacity:1;" d="M 39.601562 8.261719 C 39.640625 8.222656 39.679688 8.164062 39.71875 8.121094 C 39.800781 8 39.859375 7.902344 39.941406 7.800781 L 32.699219 7.800781 C 33.019531 7.980469 33.339844 8.140625 33.640625 8.261719 Z M 39.601562 8.261719 "/>
<path style=" stroke:none;fill-rule:nonzero;fill:rgb(83.529412%,5.882353%,51.372549%);fill-opacity:1;" d="M 38.660156 8.765625 L 35.5 8.765625 C 36.5 8.90625 37.558594 8.882812 38.660156 8.765625 Z M 38.660156 8.765625 "/>
<path style=" stroke:none;fill-rule:nonzero;fill:rgb(83.529412%,5.882353%,51.372549%);fill-opacity:1;" d="M 48.398438 8.765625 L 40.480469 8.765625 C 40.460938 8.90625 40.441406 9.085938 40.441406 9.226562 L 47.839844 9.226562 C 48.019531 9.023438 48.199219 8.882812 48.398438 8.765625 Z M 48.398438 8.765625 "/>
<path style=" stroke:none;fill-rule:nonzero;fill:rgb(83.529412%,5.882353%,51.372549%);fill-opacity:1;" d="M 30.679688 55.8125 C 30.558594 55.671875 30.441406 55.492188 30.300781 55.351562 L 22.898438 55.351562 C 23 55.492188 23.101562 55.671875 23.160156 55.8125 Z M 30.679688 55.8125 "/>
<path style=" stroke:none;fill-rule:nonzero;fill:rgb(83.529412%,5.882353%,51.372549%);fill-opacity:1;" d="M 32.019531 7.320312 L 40.378906 7.320312 C 40.5 7.199219 40.640625 7.019531 40.839844 6.859375 L 31.480469 6.859375 C 31.660156 7.019531 31.839844 7.160156 32.019531 7.320312 Z M 32.019531 7.320312 "/>
<path style=" stroke:none;fill-rule:nonzero;fill:rgb(83.529412%,5.882353%,51.372549%);fill-opacity:1;" d="M 63.078125 61.046875 C 62.820312 61.226562 62.539062 61.367188 62.28125 61.507812 L 72.320312 61.507812 C 72.460938 61.367188 72.621094 61.1875 72.761719 61.046875 Z M 63.078125 61.046875 "/>
<path style=" stroke:none;fill-rule:nonzero;fill:rgb(83.529412%,5.882353%,51.372549%);fill-opacity:1;" d="M 61.378906 61.988281 C 61.058594 62.171875 60.738281 62.3125 60.441406 62.449219 L 71.359375 62.449219 C 71.539062 62.3125 71.699219 62.128906 71.839844 61.988281 Z M 61.378906 61.988281 "/>
<path style=" stroke:none;fill-rule:nonzero;fill:rgb(83.529412%,5.882353%,51.372549%);fill-opacity:1;" d="M 59.28125 62.953125 C 58.859375 63.132812 58.421875 63.273438 58.019531 63.414062 L 70.28125 63.414062 C 70.460938 63.273438 70.640625 63.09375 70.820312 62.953125 Z M 59.28125 62.953125 "/>
<path style=" stroke:none;fill-rule:nonzero;fill:rgb(83.529412%,5.882353%,51.372549%);fill-opacity:1;" d="M 64.539062 60.085938 C 64.320312 60.265625 64.078125 60.40625 63.859375 60.546875 L 73.238281 60.546875 C 73.378906 60.40625 73.5 60.226562 73.660156 60.085938 Z M 64.539062 60.085938 "/>
<path style=" stroke:none;fill-rule:nonzero;fill:rgb(83.529412%,5.882353%,51.372549%);fill-opacity:1;" d="M 69.601562 55.351562 C 69.480469 55.492188 69.339844 55.671875 69.21875 55.8125 L 76.800781 55.8125 C 76.898438 55.671875 76.980469 55.492188 77.058594 55.351562 Z M 69.601562 55.351562 "/>
<path style=" stroke:none;fill-rule:nonzero;fill:rgb(83.529412%,5.882353%,51.372549%);fill-opacity:1;" d="M 56.378906 63.894531 C 55.679688 64.09375 54.941406 64.234375 54.21875 64.355469 L 69.058594 64.355469 C 69.261719 64.214844 69.480469 64.035156 69.660156 63.894531 Z M 56.378906 63.894531 "/>
<path style=" stroke:none;fill-rule:nonzero;fill:rgb(83.529412%,5.882353%,51.372549%);fill-opacity:1;" d="M 65.78125 59.140625 C 65.578125 59.28125 65.398438 59.464844 65.199219 59.601562 L 74.058594 59.601562 C 74.179688 59.464844 74.300781 59.28125 74.421875 59.140625 Z M 65.78125 59.140625 "/>
<path style=" stroke:none;fill-rule:nonzero;fill:rgb(83.529412%,5.882353%,51.372549%);fill-opacity:1;" d="M 67.898438 57.238281 C 67.761719 57.378906 67.578125 57.558594 67.441406 57.699219 L 75.519531 57.699219 C 75.640625 57.558594 75.738281 57.378906 75.859375 57.238281 Z M 67.898438 57.238281 "/>
<path style=" stroke:none;fill-rule:nonzero;fill:rgb(83.529412%,5.882353%,51.372549%);fill-opacity:1;" d="M 66.898438 58.179688 C 66.71875 58.320312 66.558594 58.5 66.378906 58.640625 L 74.800781 58.640625 C 74.921875 58.5 75.039062 58.320312 75.160156 58.179688 Z M 66.898438 58.179688 "/>
<path style=" stroke:none;fill-rule:nonzero;fill:rgb(83.529412%,5.882353%,51.372549%);fill-opacity:1;" d="M 68.800781 56.273438 C 68.660156 56.414062 68.5 56.59375 68.359375 56.734375 L 76.179688 56.734375 C 76.28125 56.59375 76.378906 56.414062 76.480469 56.273438 Z M 68.800781 56.273438 "/>
<path style=" stroke:none;fill-rule:nonzero;fill:rgb(83.529412%,5.882353%,51.372549%);fill-opacity:1;" d="M 32.480469 57.699219 C 32.339844 57.558594 32.160156 57.378906 32.019531 57.238281 L 24.121094 57.238281 C 24.21875 57.378906 24.339844 57.558594 24.460938 57.699219 Z M 32.480469 57.699219 "/>
<path style=" stroke:none;fill-rule:nonzero;fill:rgb(83.529412%,5.882353%,51.372549%);fill-opacity:1;" d="M 33.539062 58.640625 C 33.359375 58.5 33.199219 58.320312 33.019531 58.179688 L 24.839844 58.179688 C 24.960938 58.320312 25.058594 58.5 25.179688 58.640625 Z M 33.539062 58.640625 "/>
<path style=" stroke:none;fill-rule:nonzero;fill:rgb(83.529412%,5.882353%,51.372549%);fill-opacity:1;" d="M 34.71875 59.601562 C 34.519531 59.464844 34.339844 59.28125 34.121094 59.140625 L 25.539062 59.140625 C 25.660156 59.28125 25.78125 59.464844 25.898438 59.601562 Z M 34.71875 59.601562 "/>
<path style=" stroke:none;fill-rule:nonzero;fill:rgb(83.529412%,5.882353%,51.372549%);fill-opacity:1;" d="M 31.539062 56.777344 C 31.398438 56.636719 31.238281 56.453125 31.121094 56.3125 L 23.5 56.3125 C 23.601562 56.453125 23.699219 56.636719 23.820312 56.777344 Z M 31.539062 56.777344 "/>
<path style=" stroke:none;fill-rule:nonzero;fill:rgb(83.529412%,5.882353%,51.372549%);fill-opacity:1;" d="M 41.921875 63.414062 C 41.480469 63.273438 41.058594 63.113281 40.660156 62.953125 L 29.199219 62.953125 C 29.378906 63.09375 29.558594 63.273438 29.738281 63.414062 Z M 41.921875 63.414062 "/>
<path style=" stroke:none;fill-rule:nonzero;fill:rgb(83.529412%,5.882353%,51.372549%);fill-opacity:1;" d="M 39.5 62.449219 C 39.179688 62.3125 38.839844 62.148438 38.519531 61.988281 L 28.160156 61.988281 C 28.339844 62.128906 28.5 62.3125 28.640625 62.449219 Z M 39.5 62.449219 "/>
<path style=" stroke:none;fill-rule:nonzero;fill:rgb(83.529412%,5.882353%,51.372549%);fill-opacity:1;" d="M 45.71875 64.355469 C 44.980469 64.234375 44.261719 64.09375 43.558594 63.894531 L 30.359375 63.894531 C 30.558594 64.035156 30.738281 64.214844 30.960938 64.355469 Z M 45.71875 64.355469 "/>
<path style=" stroke:none;fill-rule:nonzero;fill:rgb(83.529412%,5.882353%,51.372549%);fill-opacity:1;" d="M 36.058594 60.546875 C 35.820312 60.40625 35.601562 60.246094 35.378906 60.085938 L 26.359375 60.085938 C 26.5 60.226562 26.621094 60.40625 26.78125 60.546875 Z M 36.058594 60.546875 "/>
<path style=" stroke:none;fill-rule:nonzero;fill:rgb(83.529412%,5.882353%,51.372549%);fill-opacity:1;" d="M 37.621094 61.507812 C 37.359375 61.367188 37.078125 61.1875 36.839844 61.046875 L 27.238281 61.046875 C 27.378906 61.1875 27.539062 61.367188 27.699219 61.507812 Z M 37.621094 61.507812 "/>
<path style=" stroke:none;fill-rule:nonzero;fill:rgb(83.529412%,5.882353%,51.372549%);fill-opacity:1;" d="M 75.179688 42.015625 C 75.160156 42.15625 75.160156 42.335938 75.140625 42.476562 L 81.28125 42.476562 C 81.300781 42.335938 81.300781 42.15625 81.300781 42.015625 Z M 75.179688 42.015625 "/>
<path style=" stroke:none;fill-rule:nonzero;fill:rgb(83.529412%,5.882353%,51.372549%);fill-opacity:1;" d="M 74.699219 44.882812 C 74.679688 45.023438 74.621094 45.203125 74.578125 45.34375 L 80.839844 45.34375 C 80.859375 45.203125 80.878906 45.023438 80.921875 44.882812 Z M 74.699219 44.882812 "/>
<path style=" stroke:none;fill-rule:nonzero;fill:rgb(83.529412%,5.882353%,51.372549%);fill-opacity:1;" d="M 75.019531 35.375 C 75.039062 35.515625 75.058594 35.699219 75.101562 35.839844 L 81.238281 35.839844 C 81.21875 35.699219 81.21875 35.515625 81.199219 35.375 Z M 75.019531 35.375 "/>
<path style=" stroke:none;fill-rule:nonzero;fill:rgb(83.529412%,5.882353%,51.372549%);fill-opacity:1;" d="M 75.058594 42.976562 C 75.039062 43.117188 75.019531 43.296875 74.980469 43.4375 L 81.140625 43.4375 C 81.160156 43.296875 81.179688 43.117188 81.179688 42.976562 Z M 75.058594 42.976562 "/>
<path style=" stroke:none;fill-rule:nonzero;fill:rgb(83.529412%,5.882353%,51.372549%);fill-opacity:1;" d="M 74.898438 43.921875 C 74.878906 44.0625 74.820312 44.242188 74.800781 44.382812 L 81 44.382812 C 81.019531 44.242188 81.039062 44.0625 81.078125 43.921875 Z M 74.898438 43.921875 "/>
<path style=" stroke:none;fill-rule:nonzero;fill:rgb(83.529412%,5.882353%,51.372549%);fill-opacity:1;" d="M 75.261719 41.074219 C 75.261719 41.214844 75.238281 41.394531 75.238281 41.535156 L 81.359375 41.535156 C 81.359375 41.394531 81.378906 41.214844 81.378906 41.074219 Z M 75.261719 41.074219 "/>
<path style=" stroke:none;fill-rule:nonzero;fill:rgb(83.529412%,5.882353%,51.372549%);fill-opacity:1;" d="M 75.238281 37.28125 C 75.261719 37.421875 75.261719 37.601562 75.261719 37.742188 L 81.378906 37.742188 C 81.378906 37.601562 81.359375 37.421875 81.359375 37.28125 Z M 75.238281 37.28125 "/>
<path style=" stroke:none;fill-rule:nonzero;fill:rgb(83.529412%,5.882353%,51.372549%);fill-opacity:1;" d="M 75.300781 40.128906 C 75.300781 40.269531 75.28125 40.449219 75.28125 40.589844 L 81.398438 40.589844 C 81.398438 40.449219 81.398438 40.269531 81.398438 40.128906 Z M 75.300781 40.128906 "/>
<path style=" stroke:none;fill-rule:nonzero;fill:rgb(83.529412%,5.882353%,51.372549%);fill-opacity:1;" d="M 75.160156 36.320312 C 75.179688 36.460938 75.179688 36.640625 75.199219 36.78125 L 81.339844 36.78125 C 81.320312 36.640625 81.320312 36.460938 81.320312 36.320312 Z M 75.160156 36.320312 "/>
<path style=" stroke:none;fill-rule:nonzero;fill:rgb(83.529412%,5.882353%,51.372549%);fill-opacity:1;" d="M 75.300781 38.226562 C 75.300781 38.363281 75.300781 38.546875 75.300781 38.6875 L 81.421875 38.6875 C 81.421875 38.546875 81.421875 38.363281 81.421875 38.226562 Z M 75.300781 38.226562 "/>
<path style=" stroke:none;fill-rule:nonzero;fill:rgb(83.529412%,5.882353%,51.372549%);fill-opacity:1;" d="M 72.179688 51.542969 C 72.078125 51.679688 72 51.863281 71.921875 52.003906 L 78.78125 52.003906 C 78.859375 51.863281 78.921875 51.679688 78.980469 51.542969 Z M 72.179688 51.542969 "/>
<path style=" stroke:none;fill-rule:nonzero;fill:rgb(83.529412%,5.882353%,51.372549%);fill-opacity:1;" d="M 70.359375 54.410156 C 70.238281 54.550781 70.121094 54.730469 70 54.871094 L 77.359375 54.871094 C 77.460938 54.730469 77.539062 54.550781 77.621094 54.410156 Z M 70.359375 54.410156 "/>
<path style=" stroke:none;fill-rule:nonzero;fill:rgb(83.529412%,5.882353%,51.372549%);fill-opacity:1;" d="M 71.621094 52.503906 C 71.519531 52.644531 71.421875 52.824219 71.320312 52.964844 L 78.339844 52.964844 C 78.421875 52.824219 78.480469 52.644531 78.558594 52.503906 Z M 71.621094 52.503906 "/>
<path style=" stroke:none;fill-rule:nonzero;fill:rgb(83.529412%,5.882353%,51.372549%);fill-opacity:1;" d="M 72.679688 50.597656 C 72.601562 50.738281 72.5 50.917969 72.441406 51.058594 L 79.160156 51.058594 C 79.238281 50.917969 79.28125 50.738281 79.359375 50.597656 Z M 72.679688 50.597656 "/>
<path style=" stroke:none;fill-rule:nonzero;fill:rgb(83.529412%,5.882353%,51.372549%);fill-opacity:1;" d="M 71.019531 53.445312 C 70.921875 53.585938 70.800781 53.765625 70.699219 53.90625 L 77.859375 53.90625 C 77.941406 53.765625 78.039062 53.585938 78.101562 53.445312 Z M 71.019531 53.445312 "/>
<path style=" stroke:none;fill-rule:nonzero;fill:rgb(83.529412%,5.882353%,51.372549%);fill-opacity:1;" d="M 74.480469 45.824219 C 74.441406 45.964844 74.398438 46.144531 74.359375 46.285156 L 80.660156 46.285156 C 80.679688 46.144531 80.738281 45.964844 80.761719 45.824219 Z M 74.480469 45.824219 "/>
<path style=" stroke:none;fill-rule:nonzero;fill:rgb(83.529412%,5.882353%,51.372549%);fill-opacity:1;" d="M 74.179688 46.789062 C 74.140625 46.929688 74.078125 47.109375 74.039062 47.25 L 80.421875 47.25 C 80.460938 47.109375 80.5 46.929688 80.519531 46.789062 Z M 74.179688 46.789062 "/>
<path style=" stroke:none;fill-rule:nonzero;fill:rgb(83.529412%,5.882353%,51.372549%);fill-opacity:1;" d="M 73.859375 47.730469 C 73.820312 47.871094 73.761719 48.050781 73.679688 48.191406 L 80.121094 48.191406 C 80.160156 48.050781 80.21875 47.871094 80.238281 47.730469 Z M 73.859375 47.730469 "/>
<path style=" stroke:none;fill-rule:nonzero;fill:rgb(83.529412%,5.882353%,51.372549%);fill-opacity:1;" d="M 73.519531 48.695312 C 73.441406 48.832031 73.398438 49.015625 73.320312 49.15625 L 79.839844 49.15625 C 79.878906 49.015625 79.941406 48.832031 79.980469 48.695312 Z M 73.519531 48.695312 "/>
<path style=" stroke:none;fill-rule:nonzero;fill:rgb(83.529412%,5.882353%,51.372549%);fill-opacity:1;" d="M 73.121094 49.636719 C 73.039062 49.777344 72.980469 49.957031 72.898438 50.097656 L 79.519531 50.097656 C 79.558594 49.957031 79.621094 49.777344 79.660156 49.636719 Z M 73.121094 49.636719 "/>
</g>
</defs>
<g id="surface1">
<use xlink:href="#surface5" mask="url(#mask0)"/>
<path style=" stroke:none;fill-rule:nonzero;fill:rgb(0%,0%,0%);fill-opacity:1;" d="M 28.640625 41.191406 C 31.300781 40.410156 33.199219 37.964844 33.199219 35.035156 L 33.199219 32.890625 C 33.199219 29.320312 30.359375 26.433594 26.800781 26.433594 L 3.199219 26.433594 L 3.199219 51.820312 L 7.378906 51.820312 L 7.378906 45.542969 L 3.339844 41.492188 L 23.019531 41.492188 L 33.300781 51.800781 L 43.738281 51.800781 L 43.738281 47.429688 L 34.878906 47.429688 Z M 26.78125 37.203125 L 7.5 37.203125 L 7.5 30.746094 L 26.800781 30.746094 C 27.941406 30.746094 28.941406 31.726562 28.941406 32.890625 L 28.941406 35.035156 C 28.898438 36.257812 27.941406 37.203125 26.78125 37.203125 Z M 26.78125 37.203125 "/>
<path style=" stroke:none;fill-rule:nonzero;fill:rgb(0%,0%,0%);fill-opacity:1;" d="M 40.078125 26.453125 L 34.980469 26.453125 L 34.980469 27.515625 L 46.421875 38.988281 L 47.441406 38.988281 L 47.441406 51.820312 L 49.398438 51.820312 L 51.78125 49.414062 L 51.78125 36.5 L 50.101562 36.5 Z M 40.078125 26.453125 "/>
<path style=" stroke:none;fill-rule:nonzero;fill:rgb(0%,0%,0%);fill-opacity:1;" d="M 64.300781 26.390625 L 63.199219 26.390625 L 53.140625 36.5 L 53.140625 41.59375 L 54.21875 41.59375 L 69.378906 26.390625 Z M 64.300781 26.390625 "/>
<path style=" stroke:none;fill-rule:nonzero;fill:rgb(0%,0%,0%);fill-opacity:1;" d="M 95.480469 26.453125 L 92.460938 26.453125 L 92.460938 43.339844 L 96.578125 47.46875 L 73.21875 47.46875 C 72.019531 47.46875 71.078125 46.527344 71.078125 45.34375 L 71.078125 29.039062 L 66.761719 33.292969 L 66.761719 45.324219 C 66.761719 48.875 69.660156 51.78125 73.238281 51.78125 L 96.820312 51.78125 L 96.820312 27.734375 Z M 95.480469 26.453125 "/>
</g>
</svg>
