<svg width="24" height="24" viewBox="0 0 24 24" fill="none" xmlns="http://www.w3.org/2000/svg">
<path d="M22.4218 9.1323C22.3281 8.83831 22.1481 8.57938 21.905 8.38927C21.662 8.19917 21.3673 8.08673 21.0595 8.06662L15.4916 7.67697L13.4262 2.47604C13.3144 2.18851 13.1184 1.94145 12.8638 1.76724C12.6092 1.59302 12.3079 1.49978 11.9994 1.49973H11.9979C11.6899 1.50027 11.3892 1.59376 11.1352 1.76794C10.8812 1.94213 10.6856 2.18892 10.5741 2.47604L8.47792 7.707L2.94081 8.06662C2.63293 8.08673 2.33826 8.19917 2.09524 8.38927C1.85222 8.57938 1.67215 8.83831 1.57851 9.1323C1.47972 9.43045 1.473 9.75145 1.55922 10.0535C1.64544 10.3555 1.82061 10.6246 2.06191 10.8257L6.32167 14.4262L5.05458 19.4104C4.96725 19.7461 4.98331 20.1004 5.10066 20.4268C5.21801 20.7533 5.43119 21.0367 5.7123 21.24C5.98369 21.4374 6.30824 21.5486 6.6437 21.5591C6.97916 21.5695 7.30999 21.4787 7.59315 21.2986L11.9877 18.5146C11.9935 18.5102 11.9994 18.5073 12.0126 18.5146L16.7411 21.5102C16.9978 21.6742 17.298 21.757 17.6025 21.7475C17.907 21.7381 18.2016 21.637 18.4476 21.4575C18.7024 21.2734 18.8955 21.0166 19.0019 20.7209C19.1083 20.4252 19.1229 20.1042 19.0438 19.8L17.6976 14.3552L21.9384 10.8257C22.1797 10.6246 22.3548 10.3555 22.4411 10.0535C22.5273 9.75145 22.5206 9.43045 22.4218 9.1323Z" fill="#FFC736"/>
</svg>
